<svg xmlns="http://www.w3.org/2000/svg" xmlns:xlink="http://www.w3.org/1999/xlink" width="500" zoomAndPan="magnify" viewBox="0 0 375 374.999991" height="500" preserveAspectRatio="xMidYMid meet" version="1.0"><defs><g/><clipPath id="824404427d"><path d="M 17.25 0 L 357.75 0 C 362.324219 0 366.710938 1.816406 369.949219 5.050781 C 373.183594 8.289062 375 12.675781 375 17.25 L 375 357.75 C 375 362.324219 373.183594 366.710938 369.949219 369.949219 C 366.710938 373.183594 362.324219 375 357.75 375 L 17.25 375 C 12.675781 375 8.289062 373.183594 5.050781 369.949219 C 1.816406 366.710938 0 362.324219 0 357.75 L 0 17.25 C 0 12.675781 1.816406 8.289062 5.050781 5.050781 C 8.289062 1.816406 12.675781 0 17.25 0 Z M 17.25 0 " clip-rule="nonzero"/></clipPath><clipPath id="a5f073b42e"><path d="M 29.460938 18.636719 L 345.210938 18.636719 L 345.210938 258 L 29.460938 258 Z M 29.460938 18.636719 " clip-rule="nonzero"/></clipPath></defs><rect x="-37.5" width="450" fill="#ffffff" y="-37.499999" height="449.999989" fill-opacity="1"/><rect x="-37.5" width="450" fill="#ffffff" y="-37.499999" height="449.999989" fill-opacity="1"/><g clip-path="url(#824404427d)"><rect x="-37.5" width="450" fill="#e61f93" y="-37.499999" height="449.999989" fill-opacity="1"/></g><g clip-path="url(#a5f073b42e)"><path fill="#faa4f7" d="M 152.808594 65.117188 C 144.792969 63.175781 136.367188 62.140625 127.679688 62.140625 C 73.511719 62.140625 29.789062 102.296875 29.789062 151.421875 C 29.789062 175.792969 40.699219 199.046875 59.914062 215.851562 C 59.921875 215.863281 59.941406 215.878906 59.957031 215.894531 C 61.347656 217.082031 62.039062 218.894531 61.789062 220.703125 C 61.785156 220.71875 61.785156 220.730469 61.785156 220.742188 C 60.414062 231.195312 57.574219 251.734375 57.574219 251.734375 C 57.28125 253.867188 58.269531 255.964844 60.097656 257.101562 C 61.917969 258.234375 64.242188 258.183594 66.019531 256.976562 L 94.613281 237.539062 C 95.953125 236.632812 97.617188 236.367188 99.164062 236.804688 C 99.175781 236.8125 99.1875 236.8125 99.191406 236.816406 C 108.410156 239.394531 118.015625 240.699219 127.679688 240.699219 C 161.183594 240.699219 190.738281 225.308594 208.351562 201.980469 C 218.859375 205.269531 230.140625 207.054688 241.878906 207.054688 C 252.179688 207.054688 262.414062 205.652344 272.230469 202.882812 C 272.242188 202.882812 272.253906 202.878906 272.261719 202.878906 C 273.820312 202.425781 275.488281 202.691406 276.824219 203.601562 L 307.34375 224.347656 C 309.125 225.554688 311.445312 225.601562 313.265625 224.472656 C 315.09375 223.335938 316.085938 221.238281 315.789062 219.105469 C 315.789062 219.105469 312.71875 196.910156 311.277344 185.953125 L 311.277344 185.921875 C 311.019531 184.097656 311.71875 182.28125 313.113281 181.089844 C 313.132812 181.082031 313.148438 181.070312 313.164062 181.054688 C 333.59375 163.304688 345.207031 138.671875 345.207031 112.847656 C 345.207031 61.003906 299.046875 18.636719 241.878906 18.636719 C 203.890625 18.636719 170.753906 37.347656 152.808594 65.117188 Z M 147.246094 75.015625 C 140.953125 73.710938 134.40625 73.019531 127.679688 73.019531 C 79.792969 73.019531 40.667969 107.996094 40.667969 151.421875 C 40.667969 172.710938 50.289062 192.972656 67.058594 207.65625 C 71.246094 211.253906 73.316406 216.726562 72.566406 222.15625 C 71.898438 227.257812 70.882812 234.753906 70.015625 241.109375 L 88.507812 228.539062 C 92.503906 225.828125 97.5 225.019531 102.125 226.34375 C 110.394531 228.652344 119.007812 229.824219 127.679688 229.824219 C 156.304688 229.824219 181.753906 217.34375 197.644531 198 C 162.679688 182.847656 138.554688 150.324219 138.554688 112.847656 C 138.554688 99.410156 141.652344 86.609375 147.246094 75.015625 Z M 149.429688 112.847656 C 149.429688 66.699219 190.996094 29.511719 241.878906 29.511719 C 292.765625 29.511719 334.328125 66.699219 334.328125 112.847656 C 334.328125 135.578125 324.019531 157.210938 306.039062 172.835938 C 301.832031 176.429688 299.742188 181.921875 300.5 187.410156 C 301.230469 192.964844 302.390625 201.46875 303.347656 208.476562 L 282.933594 194.601562 C 278.925781 191.882812 273.910156 191.082031 269.25 192.425781 C 260.417969 194.914062 251.179688 196.175781 241.878906 196.175781 C 190.996094 196.175781 149.429688 158.992188 149.429688 112.847656 Z M 138.554688 181.78125 L 89.609375 181.78125 C 86.609375 181.78125 84.171875 184.21875 84.171875 187.21875 C 84.171875 190.222656 86.609375 192.660156 89.609375 192.660156 L 138.554688 192.660156 C 141.554688 192.660156 143.992188 190.222656 143.992188 187.21875 C 143.992188 184.21875 141.554688 181.78125 138.554688 181.78125 Z M 127.679688 149.152344 L 89.609375 149.152344 C 86.609375 149.152344 84.171875 151.589844 84.171875 154.589844 C 84.171875 157.59375 86.609375 160.03125 89.609375 160.03125 L 127.679688 160.03125 C 130.679688 160.03125 133.117188 157.59375 133.117188 154.589844 C 133.117188 151.589844 130.679688 149.152344 127.679688 149.152344 Z M 285.386719 100.210938 C 276.378906 100.210938 269.070312 107.519531 269.070312 116.523438 C 269.070312 125.53125 276.378906 132.839844 285.386719 132.839844 C 294.390625 132.839844 301.699219 125.53125 301.699219 116.523438 C 301.699219 107.519531 294.390625 100.210938 285.386719 100.210938 Z M 241.878906 100.210938 C 232.875 100.210938 225.566406 107.519531 225.566406 116.523438 C 225.566406 125.53125 232.875 132.839844 241.878906 132.839844 C 250.886719 132.839844 258.195312 125.53125 258.195312 116.523438 C 258.195312 107.519531 250.886719 100.210938 241.878906 100.210938 Z M 198.375 100.210938 C 189.367188 100.210938 182.058594 107.519531 182.058594 116.523438 C 182.058594 125.53125 189.367188 132.839844 198.375 132.839844 C 207.378906 132.839844 214.6875 125.53125 214.6875 116.523438 C 214.6875 107.519531 207.378906 100.210938 198.375 100.210938 Z M 122.238281 116.523438 L 89.609375 116.523438 C 86.609375 116.523438 84.171875 118.960938 84.171875 121.960938 C 84.171875 124.964844 86.609375 127.402344 89.609375 127.402344 L 122.238281 127.402344 C 125.242188 127.402344 127.679688 124.964844 127.679688 121.960938 C 127.679688 118.960938 125.242188 116.523438 122.238281 116.523438 Z M 285.386719 111.085938 C 288.386719 111.085938 290.824219 113.523438 290.824219 116.523438 C 290.824219 119.527344 288.386719 121.960938 285.386719 121.960938 C 282.382812 121.960938 279.949219 119.527344 279.949219 116.523438 C 279.949219 113.523438 282.382812 111.085938 285.386719 111.085938 Z M 241.878906 111.085938 C 244.882812 111.085938 247.316406 113.523438 247.316406 116.523438 C 247.316406 119.527344 244.882812 121.960938 241.878906 121.960938 C 238.878906 121.960938 236.441406 119.527344 236.441406 116.523438 C 236.441406 113.523438 238.878906 111.085938 241.878906 111.085938 Z M 198.375 111.085938 C 201.375 111.085938 203.8125 113.523438 203.8125 116.523438 C 203.8125 119.527344 201.375 121.960938 198.375 121.960938 C 195.371094 121.960938 192.9375 119.527344 192.9375 116.523438 C 192.9375 113.523438 195.371094 111.085938 198.375 111.085938 Z M 198.375 111.085938 " fill-opacity="1" fill-rule="evenodd"/></g><g fill="#ffffff" fill-opacity="1"><g transform="translate(29.827151, 332.083718)"><g><path d="M 43.140625 -35.140625 L 43.140625 -30.5625 L 34.859375 -30.5625 L 32.984375 -19.421875 L 41.1875 -19.421875 L 41.1875 -14.875 L 32.203125 -14.875 L 29.703125 0 L 24.640625 0 L 27.140625 -14.875 L 15.6875 -14.875 L 13.1875 0 L 8.140625 0 L 10.625 -14.875 L 3.140625 -14.875 L 3.140625 -19.421875 L 11.421875 -19.421875 L 13.296875 -30.5625 L 5.0625 -30.5625 L 5.0625 -35.140625 L 14.078125 -35.140625 L 16.578125 -49.96875 L 21.640625 -49.96875 L 19.140625 -35.140625 L 30.5625 -35.140625 L 33.046875 -49.96875 L 38.140625 -49.96875 L 35.65625 -35.140625 Z M 16.46875 -19.421875 L 27.921875 -19.421875 L 29.765625 -30.5625 L 18.359375 -30.5625 Z M 16.46875 -19.421875 "/></g></g></g><g fill="#ffffff" fill-opacity="1"><g transform="translate(76.103862, 332.083718)"><g><path d="M 9.359375 -44.984375 C 8.179688 -44.984375 7.21875 -45.351562 6.46875 -46.09375 C 5.726562 -46.832031 5.359375 -47.769531 5.359375 -48.90625 C 5.359375 -50.050781 5.726562 -50.992188 6.46875 -51.734375 C 7.21875 -52.472656 8.179688 -52.84375 9.359375 -52.84375 C 10.546875 -52.84375 11.507812 -52.472656 12.25 -51.734375 C 12.988281 -50.992188 13.359375 -50.050781 13.359375 -48.90625 C 13.359375 -47.769531 12.988281 -46.832031 12.25 -46.09375 C 11.507812 -45.351562 10.546875 -44.984375 9.359375 -44.984375 Z M 6.5625 0 L 6.5625 -37.703125 L 12.140625 -37.703125 L 12.140625 0 Z M 6.5625 0 "/></g></g></g><g fill="#ffffff" fill-opacity="1"><g transform="translate(94.799113, 332.083718)"><g><path d="M 17.1875 0.71875 C 14.820312 0.71875 12.628906 0.40625 10.609375 -0.21875 C 8.597656 -0.84375 6.894531 -1.703125 5.5 -2.796875 C 4.113281 -3.890625 3.132812 -5.125 2.5625 -6.5 L 5.84375 -9.90625 L 6.5625 -9.90625 C 7.789062 -8.039062 9.269531 -6.632812 11 -5.6875 C 12.738281 -4.738281 14.800781 -4.265625 17.1875 -4.265625 C 19.96875 -4.265625 22.082031 -4.804688 23.53125 -5.890625 C 24.976562 -6.972656 25.703125 -8.484375 25.703125 -10.421875 C 25.703125 -11.898438 25.265625 -13.125 24.390625 -14.09375 C 23.515625 -15.0625 22.09375 -15.785156 20.125 -16.265625 L 13.78125 -17.84375 C 10.382812 -18.664062 7.90625 -19.960938 6.34375 -21.734375 C 4.78125 -23.515625 4 -25.710938 4 -28.328125 C 4 -30.378906 4.519531 -32.160156 5.5625 -33.671875 C 6.613281 -35.191406 8.125 -36.363281 10.09375 -37.1875 C 12.070312 -38.007812 14.414062 -38.421875 17.125 -38.421875 C 20.582031 -38.421875 23.304688 -37.9375 25.296875 -36.96875 C 27.296875 -36 28.851562 -34.648438 29.96875 -32.921875 L 26.828125 -29.84375 L 26.140625 -29.84375 C 24.941406 -31.226562 23.628906 -32.226562 22.203125 -32.84375 C 20.773438 -33.457031 19.082031 -33.765625 17.125 -33.765625 C 14.644531 -33.765625 12.742188 -33.320312 11.421875 -32.4375 C 10.097656 -31.550781 9.4375 -30.265625 9.4375 -28.578125 C 9.4375 -27.046875 9.898438 -25.8125 10.828125 -24.875 C 11.765625 -23.945312 13.394531 -23.195312 15.71875 -22.625 L 21.984375 -21.125 C 25.265625 -20.351562 27.632812 -19.066406 29.09375 -17.265625 C 30.550781 -15.460938 31.28125 -13.207031 31.28125 -10.5 C 31.28125 -8.28125 30.753906 -6.328125 29.703125 -4.640625 C 28.648438 -2.960938 27.0625 -1.648438 24.9375 -0.703125 C 22.820312 0.242188 20.238281 0.71875 17.1875 0.71875 Z M 17.1875 0.71875 "/></g></g></g><g fill="#ffffff" fill-opacity="1"><g transform="translate(129.660446, 332.083718)"><g><path d="M 15.546875 0.71875 C 11.835938 0.71875 8.9375 -0.25 6.84375 -2.1875 C 4.757812 -4.125 3.71875 -6.894531 3.71875 -10.5 C 3.71875 -12.726562 4.179688 -14.609375 5.109375 -16.140625 C 6.035156 -17.679688 7.46875 -18.9375 9.40625 -19.90625 C 11.34375 -20.875 13.867188 -21.625 16.984375 -22.15625 C 19.722656 -22.601562 21.800781 -23.113281 23.21875 -23.6875 C 24.644531 -24.257812 25.601562 -24.894531 26.09375 -25.59375 C 26.582031 -26.300781 26.828125 -27.191406 26.828125 -28.265625 C 26.828125 -29.972656 26.238281 -31.28125 25.0625 -32.1875 C 23.894531 -33.101562 22.015625 -33.5625 19.421875 -33.5625 C 16.972656 -33.5625 14.878906 -33.085938 13.140625 -32.140625 C 11.398438 -31.203125 9.800781 -29.796875 8.34375 -27.921875 L 7.65625 -27.921875 L 4.921875 -31.78125 C 6.515625 -33.8125 8.539062 -35.425781 11 -36.625 C 13.46875 -37.820312 16.273438 -38.421875 19.421875 -38.421875 C 23.859375 -38.421875 27.128906 -37.445312 29.234375 -35.5 C 31.347656 -33.550781 32.40625 -30.851562 32.40625 -27.40625 L 32.40625 -7.421875 C 32.40625 -5.316406 33.289062 -4.265625 35.0625 -4.265625 C 35.65625 -4.265625 36.226562 -4.367188 36.78125 -4.578125 L 37.25 -4.4375 L 37.90625 -0.578125 C 37.5 -0.304688 36.957031 -0.0976562 36.28125 0.046875 C 35.613281 0.203125 34.925781 0.28125 34.21875 0.28125 C 32.144531 0.28125 30.578125 -0.175781 29.515625 -1.09375 C 28.453125 -2.007812 27.773438 -3.351562 27.484375 -5.125 L 26.765625 -5.203125 C 25.691406 -3.210938 24.242188 -1.726562 22.421875 -0.75 C 20.597656 0.226562 18.304688 0.71875 15.546875 0.71875 Z M 16.78125 -3.71875 C 18.875 -3.71875 20.691406 -4.203125 22.234375 -5.171875 C 23.773438 -6.140625 24.953125 -7.5 25.765625 -9.25 C 26.585938 -11.007812 27 -13.039062 27 -15.34375 L 27 -20.125 L 26.359375 -20.265625 C 25.515625 -19.671875 24.488281 -19.175781 23.28125 -18.78125 C 22.070312 -18.382812 20.382812 -18.023438 18.21875 -17.703125 C 16.03125 -17.410156 14.289062 -16.957031 13 -16.34375 C 11.71875 -15.726562 10.800781 -14.945312 10.25 -14 C 9.707031 -13.050781 9.4375 -11.882812 9.4375 -10.5 C 9.4375 -8.28125 10.082031 -6.59375 11.375 -5.4375 C 12.675781 -4.289062 14.476562 -3.71875 16.78125 -3.71875 Z M 16.78125 -3.71875 "/></g></g></g><g fill="#ffffff" fill-opacity="1"><g transform="translate(168.657297, 332.083718)"><g><path d="M 23 -21.765625 L 3.5625 -21.765625 L 3.5625 -26.765625 L 23 -26.765625 Z M 23 -21.765625 "/></g></g></g><g fill="#ffffff" fill-opacity="1"><g transform="translate(195.179252, 332.083718)"><g><path d="M 21.640625 0.71875 C 18.304688 0.71875 15.316406 -0.0351562 12.671875 -1.546875 C 10.035156 -3.066406 7.953125 -5.300781 6.421875 -8.25 C 4.898438 -11.207031 4.140625 -14.734375 4.140625 -18.828125 C 4.140625 -22.953125 4.898438 -26.488281 6.421875 -29.4375 C 7.953125 -32.394531 10.035156 -34.628906 12.671875 -36.140625 C 15.316406 -37.660156 18.304688 -38.421875 21.640625 -38.421875 C 25.628906 -38.421875 28.800781 -37.664062 31.15625 -36.15625 C 33.507812 -34.65625 35.210938 -32.648438 36.265625 -30.140625 L 32.46875 -27.40625 L 31.78125 -27.40625 C 30.757812 -29.476562 29.445312 -31 27.84375 -31.96875 C 26.238281 -32.9375 24.171875 -33.421875 21.640625 -33.421875 C 19.316406 -33.421875 17.273438 -32.875 15.515625 -31.78125 C 13.765625 -30.6875 12.40625 -29.046875 11.4375 -26.859375 C 10.46875 -24.671875 9.984375 -21.992188 9.984375 -18.828125 C 9.984375 -15.679688 10.472656 -13.019531 11.453125 -10.84375 C 12.429688 -8.675781 13.789062 -7.035156 15.53125 -5.921875 C 17.28125 -4.816406 19.316406 -4.265625 21.640625 -4.265625 C 24.253906 -4.265625 26.421875 -4.859375 28.140625 -6.046875 C 29.867188 -7.234375 31.222656 -9.101562 32.203125 -11.65625 L 32.921875 -11.65625 L 36.578125 -9.5 C 35.597656 -6.332031 33.847656 -3.835938 31.328125 -2.015625 C 28.804688 -0.191406 25.578125 0.71875 21.640625 0.71875 Z M 21.640625 0.71875 "/></g></g></g><g fill="#ffffff" fill-opacity="1"><g transform="translate(234.039403, 332.083718)"><g><path d="M 6.5625 0 L 6.5625 -52.84375 L 12.140625 -52.84375 L 12.140625 -32.328125 L 12.859375 -32.203125 C 15.546875 -36.347656 19.425781 -38.421875 24.5 -38.421875 C 29.039062 -38.421875 32.328125 -37.265625 34.359375 -34.953125 C 36.398438 -32.640625 37.421875 -29.078125 37.421875 -24.265625 L 37.421875 0 L 31.859375 0 L 31.859375 -24.125 C 31.859375 -26.40625 31.566406 -28.234375 30.984375 -29.609375 C 30.398438 -30.992188 29.5 -32 28.28125 -32.625 C 27.0625 -33.25 25.460938 -33.5625 23.484375 -33.5625 C 20.066406 -33.5625 17.320312 -32.457031 15.25 -30.25 C 13.175781 -28.039062 12.140625 -24.40625 12.140625 -19.34375 L 12.140625 0 Z M 6.5625 0 "/></g></g></g><g fill="#ffffff" fill-opacity="1"><g transform="translate(277.445193, 332.083718)"><g><path d="M 15.546875 0.71875 C 11.835938 0.71875 8.9375 -0.25 6.84375 -2.1875 C 4.757812 -4.125 3.71875 -6.894531 3.71875 -10.5 C 3.71875 -12.726562 4.179688 -14.609375 5.109375 -16.140625 C 6.035156 -17.679688 7.46875 -18.9375 9.40625 -19.90625 C 11.34375 -20.875 13.867188 -21.625 16.984375 -22.15625 C 19.722656 -22.601562 21.800781 -23.113281 23.21875 -23.6875 C 24.644531 -24.257812 25.601562 -24.894531 26.09375 -25.59375 C 26.582031 -26.300781 26.828125 -27.191406 26.828125 -28.265625 C 26.828125 -29.972656 26.238281 -31.28125 25.0625 -32.1875 C 23.894531 -33.101562 22.015625 -33.5625 19.421875 -33.5625 C 16.972656 -33.5625 14.878906 -33.085938 13.140625 -32.140625 C 11.398438 -31.203125 9.800781 -29.796875 8.34375 -27.921875 L 7.65625 -27.921875 L 4.921875 -31.78125 C 6.515625 -33.8125 8.539062 -35.425781 11 -36.625 C 13.46875 -37.820312 16.273438 -38.421875 19.421875 -38.421875 C 23.859375 -38.421875 27.128906 -37.445312 29.234375 -35.5 C 31.347656 -33.550781 32.40625 -30.851562 32.40625 -27.40625 L 32.40625 -7.421875 C 32.40625 -5.316406 33.289062 -4.265625 35.0625 -4.265625 C 35.65625 -4.265625 36.226562 -4.367188 36.78125 -4.578125 L 37.25 -4.4375 L 37.90625 -0.578125 C 37.5 -0.304688 36.957031 -0.0976562 36.28125 0.046875 C 35.613281 0.203125 34.925781 0.28125 34.21875 0.28125 C 32.144531 0.28125 30.578125 -0.175781 29.515625 -1.09375 C 28.453125 -2.007812 27.773438 -3.351562 27.484375 -5.125 L 26.765625 -5.203125 C 25.691406 -3.210938 24.242188 -1.726562 22.421875 -0.75 C 20.597656 0.226562 18.304688 0.71875 15.546875 0.71875 Z M 16.78125 -3.71875 C 18.875 -3.71875 20.691406 -4.203125 22.234375 -5.171875 C 23.773438 -6.140625 24.953125 -7.5 25.765625 -9.25 C 26.585938 -11.007812 27 -13.039062 27 -15.34375 L 27 -20.125 L 26.359375 -20.265625 C 25.515625 -19.671875 24.488281 -19.175781 23.28125 -18.78125 C 22.070312 -18.382812 20.382812 -18.023438 18.21875 -17.703125 C 16.03125 -17.410156 14.289062 -16.957031 13 -16.34375 C 11.71875 -15.726562 10.800781 -14.945312 10.25 -14 C 9.707031 -13.050781 9.4375 -11.882812 9.4375 -10.5 C 9.4375 -8.28125 10.082031 -6.59375 11.375 -5.4375 C 12.675781 -4.289062 14.476562 -3.71875 16.78125 -3.71875 Z M 16.78125 -3.71875 "/></g></g></g><g fill="#ffffff" fill-opacity="1"><g transform="translate(316.442032, 332.083718)"><g><path d="M 25.5 -5.984375 L 27.28125 -1.984375 C 26.382812 -1.097656 25.210938 -0.425781 23.765625 0.03125 C 22.328125 0.488281 20.765625 0.71875 19.078125 0.71875 C 11.867188 0.71875 8.265625 -2.925781 8.265625 -10.21875 L 8.265625 -33.15625 L 1.703125 -33.15625 L 1.703125 -37.734375 L 8.265625 -37.734375 L 8.265625 -45.703125 L 13.84375 -46.625 L 13.84375 -37.734375 L 25.984375 -37.734375 L 25.984375 -33.15625 L 13.84375 -33.15625 L 13.84375 -10.765625 C 13.84375 -6.429688 15.722656 -4.265625 19.484375 -4.265625 C 21.535156 -4.265625 23.300781 -4.835938 24.78125 -5.984375 Z M 25.5 -5.984375 "/></g></g></g><g fill="#ffffff" fill-opacity="1"><g transform="translate(126.574215, 358.100016)"><g><path d="M 2.546875 -12.203125 C 2.222656 -12.203125 1.957031 -12.300781 1.75 -12.5 C 1.550781 -12.707031 1.453125 -12.96875 1.453125 -13.28125 C 1.453125 -13.582031 1.550781 -13.832031 1.75 -14.03125 C 1.957031 -14.238281 2.222656 -14.34375 2.546875 -14.34375 C 2.867188 -14.34375 3.128906 -14.238281 3.328125 -14.03125 C 3.523438 -13.832031 3.625 -13.582031 3.625 -13.28125 C 3.625 -12.96875 3.523438 -12.707031 3.328125 -12.5 C 3.128906 -12.300781 2.867188 -12.203125 2.546875 -12.203125 Z M 0.5 4.34375 C 0.175781 4.34375 -0.101562 4.316406 -0.34375 4.265625 C -0.59375 4.222656 -0.832031 4.160156 -1.0625 4.078125 L -0.828125 2.90625 L -0.65625 2.84375 C -0.34375 2.96875 -0.03125 3.03125 0.28125 3.03125 C 0.769531 3.03125 1.140625 2.867188 1.390625 2.546875 C 1.648438 2.222656 1.78125 1.765625 1.78125 1.171875 L 1.78125 -10.234375 L 3.296875 -10.234375 L 3.296875 1.125 C 3.296875 2.144531 3.050781 2.9375 2.5625 3.5 C 2.070312 4.0625 1.382812 4.34375 0.5 4.34375 Z M 0.5 4.34375 "/></g></g></g><g fill="#ffffff" fill-opacity="1"><g transform="translate(131.647885, 358.100016)"><g><path d="M 5.875 0.1875 C 4.90625 0.1875 4.0625 -0.015625 3.34375 -0.421875 C 2.632812 -0.828125 2.085938 -1.425781 1.703125 -2.21875 C 1.316406 -3.019531 1.125 -3.984375 1.125 -5.109375 C 1.125 -6.242188 1.316406 -7.207031 1.703125 -8 C 2.085938 -8.800781 2.632812 -9.40625 3.34375 -9.8125 C 4.0625 -10.21875 4.90625 -10.421875 5.875 -10.421875 C 6.832031 -10.421875 7.671875 -10.21875 8.390625 -9.8125 C 9.109375 -9.40625 9.660156 -8.800781 10.046875 -8 C 10.429688 -7.207031 10.625 -6.242188 10.625 -5.109375 C 10.625 -3.984375 10.429688 -3.019531 10.046875 -2.21875 C 9.660156 -1.425781 9.109375 -0.828125 8.390625 -0.421875 C 7.671875 -0.015625 6.832031 0.1875 5.875 0.1875 Z M 5.875 -1.15625 C 6.894531 -1.15625 7.675781 -1.476562 8.21875 -2.125 C 8.757812 -2.769531 9.03125 -3.765625 9.03125 -5.109375 C 9.03125 -6.460938 8.757812 -7.460938 8.21875 -8.109375 C 7.675781 -8.753906 6.894531 -9.078125 5.875 -9.078125 C 4.851562 -9.078125 4.066406 -8.753906 3.515625 -8.109375 C 2.972656 -7.460938 2.703125 -6.460938 2.703125 -5.109375 C 2.703125 -3.765625 2.972656 -2.769531 3.515625 -2.125 C 4.066406 -1.476562 4.851562 -1.15625 5.875 -1.15625 Z M 5.875 -1.15625 "/></g></g></g><g fill="#ffffff" fill-opacity="1"><g transform="translate(143.390586, 358.100016)"><g><path d="M 2.546875 -12.203125 C 2.222656 -12.203125 1.957031 -12.300781 1.75 -12.5 C 1.550781 -12.707031 1.453125 -12.96875 1.453125 -13.28125 C 1.453125 -13.582031 1.550781 -13.832031 1.75 -14.03125 C 1.957031 -14.238281 2.222656 -14.34375 2.546875 -14.34375 C 2.867188 -14.34375 3.128906 -14.238281 3.328125 -14.03125 C 3.523438 -13.832031 3.625 -13.582031 3.625 -13.28125 C 3.625 -12.96875 3.523438 -12.707031 3.328125 -12.5 C 3.128906 -12.300781 2.867188 -12.203125 2.546875 -12.203125 Z M 1.78125 0 L 1.78125 -10.234375 L 3.296875 -10.234375 L 3.296875 0 Z M 1.78125 0 "/></g></g></g><g fill="#ffffff" fill-opacity="1"><g transform="translate(148.464255, 358.100016)"><g><path d="M 1.78125 0 L 1.78125 -10.234375 L 3.21875 -10.234375 L 3.21875 -8.625 L 3.421875 -8.578125 C 3.753906 -9.179688 4.1875 -9.640625 4.71875 -9.953125 C 5.25 -10.265625 5.894531 -10.421875 6.65625 -10.421875 C 7.882812 -10.421875 8.773438 -10.109375 9.328125 -9.484375 C 9.878906 -8.859375 10.15625 -7.894531 10.15625 -6.59375 L 10.15625 0 L 8.640625 0 L 8.640625 -6.546875 C 8.640625 -7.171875 8.5625 -7.664062 8.40625 -8.03125 C 8.25 -8.40625 8.003906 -8.675781 7.671875 -8.84375 C 7.347656 -9.019531 6.914062 -9.109375 6.375 -9.109375 C 5.445312 -9.109375 4.703125 -8.800781 4.140625 -8.1875 C 3.578125 -7.582031 3.296875 -6.601562 3.296875 -5.25 L 3.296875 0 Z M 1.78125 0 "/></g></g></g><g fill="#ffffff" fill-opacity="1"><g transform="translate(160.244059, 358.100016)"><g><path d="M 2.546875 -12.203125 C 2.222656 -12.203125 1.957031 -12.300781 1.75 -12.5 C 1.550781 -12.707031 1.453125 -12.96875 1.453125 -13.28125 C 1.453125 -13.582031 1.550781 -13.832031 1.75 -14.03125 C 1.957031 -14.238281 2.222656 -14.34375 2.546875 -14.34375 C 2.867188 -14.34375 3.128906 -14.238281 3.328125 -14.03125 C 3.523438 -13.832031 3.625 -13.582031 3.625 -13.28125 C 3.625 -12.96875 3.523438 -12.707031 3.328125 -12.5 C 3.128906 -12.300781 2.867188 -12.203125 2.546875 -12.203125 Z M 1.78125 0 L 1.78125 -10.234375 L 3.296875 -10.234375 L 3.296875 0 Z M 1.78125 0 "/></g></g></g><g fill="#ffffff" fill-opacity="1"><g transform="translate(165.317728, 358.100016)"><g><path d="M 1.78125 0 L 1.78125 -10.234375 L 3.21875 -10.234375 L 3.21875 -8.625 L 3.421875 -8.578125 C 3.753906 -9.179688 4.1875 -9.640625 4.71875 -9.953125 C 5.25 -10.265625 5.894531 -10.421875 6.65625 -10.421875 C 7.882812 -10.421875 8.773438 -10.109375 9.328125 -9.484375 C 9.878906 -8.859375 10.15625 -7.894531 10.15625 -6.59375 L 10.15625 0 L 8.640625 0 L 8.640625 -6.546875 C 8.640625 -7.171875 8.5625 -7.664062 8.40625 -8.03125 C 8.25 -8.40625 8.003906 -8.675781 7.671875 -8.84375 C 7.347656 -9.019531 6.914062 -9.109375 6.375 -9.109375 C 5.445312 -9.109375 4.703125 -8.800781 4.140625 -8.1875 C 3.578125 -7.582031 3.296875 -6.601562 3.296875 -5.25 L 3.296875 0 Z M 1.78125 0 "/></g></g></g><g fill="#ffffff" fill-opacity="1"><g transform="translate(177.097531, 358.100016)"><g><path d="M 5.265625 4.34375 C 3.648438 4.34375 2.472656 4.070312 1.734375 3.53125 C 0.992188 3 0.625 2.285156 0.625 1.390625 C 0.625 0.816406 0.796875 0.359375 1.140625 0.015625 C 1.484375 -0.316406 1.988281 -0.5625 2.65625 -0.71875 L 2.65625 -0.90625 C 2.34375 -1.082031 2.101562 -1.289062 1.9375 -1.53125 C 1.78125 -1.78125 1.703125 -2.070312 1.703125 -2.40625 C 1.703125 -2.800781 1.828125 -3.117188 2.078125 -3.359375 C 2.328125 -3.609375 2.703125 -3.800781 3.203125 -3.9375 L 3.203125 -4.125 C 2.085938 -4.71875 1.53125 -5.675781 1.53125 -7 C 1.53125 -7.664062 1.679688 -8.257812 1.984375 -8.78125 C 2.285156 -9.300781 2.71875 -9.703125 3.28125 -9.984375 C 3.84375 -10.273438 4.5 -10.421875 5.25 -10.421875 C 6.113281 -10.421875 6.832031 -10.234375 7.40625 -9.859375 C 7.625 -10.097656 7.785156 -10.351562 7.890625 -10.625 C 7.992188 -10.90625 8.0625 -11.21875 8.09375 -11.5625 L 8.296875 -11.6875 L 9.53125 -11.390625 C 9.46875 -10.867188 9.3125 -10.425781 9.0625 -10.0625 C 8.8125 -9.707031 8.457031 -9.414062 8 -9.1875 L 8 -8.984375 C 8.332031 -8.722656 8.578125 -8.414062 8.734375 -8.0625 C 8.890625 -7.71875 8.96875 -7.316406 8.96875 -6.859375 C 8.96875 -6.210938 8.8125 -5.628906 8.5 -5.109375 C 8.195312 -4.597656 7.765625 -4.195312 7.203125 -3.90625 C 6.640625 -3.613281 5.988281 -3.46875 5.25 -3.46875 C 5.164062 -3.46875 5.007812 -3.472656 4.78125 -3.484375 C 4.539062 -3.492188 4.359375 -3.5 4.234375 -3.5 C 3.910156 -3.5 3.65625 -3.414062 3.46875 -3.25 C 3.28125 -3.082031 3.1875 -2.867188 3.1875 -2.609375 C 3.1875 -2.296875 3.285156 -2.0625 3.484375 -1.90625 C 3.691406 -1.75 4.035156 -1.664062 4.515625 -1.65625 L 6.9375 -1.5625 C 7.976562 -1.53125 8.75 -1.289062 9.25 -0.84375 C 9.757812 -0.394531 10.015625 0.238281 10.015625 1.0625 C 10.015625 1.675781 9.847656 2.226562 9.515625 2.71875 C 9.191406 3.207031 8.675781 3.597656 7.96875 3.890625 C 7.257812 4.191406 6.359375 4.34375 5.265625 4.34375 Z M 5.25 -4.765625 C 5.976562 -4.765625 6.539062 -4.953125 6.9375 -5.328125 C 7.332031 -5.710938 7.53125 -6.242188 7.53125 -6.921875 C 7.53125 -7.628906 7.332031 -8.171875 6.9375 -8.546875 C 6.539062 -8.929688 5.976562 -9.125 5.25 -9.125 C 4.519531 -9.125 3.960938 -8.929688 3.578125 -8.546875 C 3.191406 -8.171875 3 -7.628906 3 -6.921875 C 3 -6.234375 3.191406 -5.703125 3.578125 -5.328125 C 3.960938 -4.953125 4.519531 -4.765625 5.25 -4.765625 Z M 5.265625 3.046875 C 6.023438 3.046875 6.644531 2.960938 7.125 2.796875 C 7.601562 2.628906 7.945312 2.40625 8.15625 2.125 C 8.363281 1.851562 8.46875 1.546875 8.46875 1.203125 C 8.46875 0.898438 8.410156 0.65625 8.296875 0.46875 C 8.179688 0.28125 7.992188 0.140625 7.734375 0.046875 C 7.484375 -0.0351562 7.140625 -0.09375 6.703125 -0.125 L 4.421875 -0.234375 L 4.09375 -0.234375 C 2.8125 -0.210938 2.171875 0.285156 2.171875 1.265625 C 2.171875 2.453125 3.203125 3.046875 5.265625 3.046875 Z M 5.265625 3.046875 "/></g></g></g><g fill="#ffffff" fill-opacity="1"><g transform="translate(187.578774, 358.100016)"><g/></g></g><g fill="#ffffff" fill-opacity="1"><g transform="translate(192.235042, 358.100016)"><g><path d="M 6.921875 -1.625 L 7.40625 -0.53125 C 7.164062 -0.289062 6.847656 -0.113281 6.453125 0 C 6.054688 0.125 5.628906 0.1875 5.171875 0.1875 C 3.222656 0.1875 2.25 -0.800781 2.25 -2.78125 L 2.25 -9 L 0.46875 -9 L 0.46875 -10.25 L 2.25 -10.25 L 2.25 -12.40625 L 3.75 -12.65625 L 3.75 -10.25 L 7.046875 -10.25 L 7.046875 -9 L 3.75 -9 L 3.75 -2.921875 C 3.75 -1.742188 4.257812 -1.15625 5.28125 -1.15625 C 5.84375 -1.15625 6.320312 -1.3125 6.71875 -1.625 Z M 6.921875 -1.625 "/></g></g></g><g fill="#ffffff" fill-opacity="1"><g transform="translate(200.026409, 358.100016)"><g><path d="M 9.75 -4.765625 L 2.71875 -4.765625 C 2.757812 -3.523438 3.054688 -2.613281 3.609375 -2.03125 C 4.160156 -1.445312 4.921875 -1.15625 5.890625 -1.15625 C 6.617188 -1.15625 7.207031 -1.285156 7.65625 -1.546875 C 8.101562 -1.804688 8.453125 -2.21875 8.703125 -2.78125 L 8.890625 -2.78125 L 9.875 -2.1875 C 9.582031 -1.445312 9.109375 -0.863281 8.453125 -0.4375 C 7.804688 -0.0195312 6.953125 0.1875 5.890625 0.1875 C 4.898438 0.1875 4.046875 -0.00390625 3.328125 -0.390625 C 2.617188 -0.773438 2.070312 -1.363281 1.6875 -2.15625 C 1.3125 -2.945312 1.125 -3.929688 1.125 -5.109375 C 1.125 -6.273438 1.328125 -7.253906 1.734375 -8.046875 C 2.140625 -8.847656 2.691406 -9.441406 3.390625 -9.828125 C 4.085938 -10.222656 4.890625 -10.421875 5.796875 -10.421875 C 7.109375 -10.421875 8.128906 -10.050781 8.859375 -9.3125 C 9.597656 -8.570312 9.972656 -7.476562 9.984375 -6.03125 C 9.984375 -5.457031 9.972656 -5.070312 9.953125 -4.875 Z M 8.484375 -6.03125 C 8.460938 -7.113281 8.222656 -7.898438 7.765625 -8.390625 C 7.304688 -8.890625 6.648438 -9.140625 5.796875 -9.140625 C 4.898438 -9.140625 4.195312 -8.890625 3.6875 -8.390625 C 3.175781 -7.898438 2.863281 -7.113281 2.75 -6.03125 Z M 8.484375 -6.03125 "/></g></g></g><g fill="#ffffff" fill-opacity="1"><g transform="translate(210.934321, 358.100016)"><g><path d="M 4.21875 0.1875 C 3.207031 0.1875 2.421875 -0.0703125 1.859375 -0.59375 C 1.296875 -1.113281 1.015625 -1.863281 1.015625 -2.84375 C 1.015625 -3.445312 1.140625 -3.957031 1.390625 -4.375 C 1.640625 -4.800781 2.023438 -5.144531 2.546875 -5.40625 C 3.078125 -5.664062 3.765625 -5.867188 4.609375 -6.015625 C 5.347656 -6.140625 5.910156 -6.273438 6.296875 -6.421875 C 6.691406 -6.578125 6.953125 -6.75 7.078125 -6.9375 C 7.210938 -7.132812 7.28125 -7.378906 7.28125 -7.671875 C 7.28125 -8.140625 7.117188 -8.492188 6.796875 -8.734375 C 6.484375 -8.984375 5.972656 -9.109375 5.265625 -9.109375 C 4.609375 -9.109375 4.039062 -8.976562 3.5625 -8.71875 C 3.09375 -8.46875 2.660156 -8.085938 2.265625 -7.578125 L 2.078125 -7.578125 L 1.34375 -8.625 C 1.769531 -9.175781 2.316406 -9.613281 2.984375 -9.9375 C 3.648438 -10.257812 4.410156 -10.421875 5.265625 -10.421875 C 6.472656 -10.421875 7.363281 -10.15625 7.9375 -9.625 C 8.507812 -9.101562 8.796875 -8.375 8.796875 -7.4375 L 8.796875 -2.015625 C 8.796875 -1.441406 9.035156 -1.15625 9.515625 -1.15625 C 9.679688 -1.15625 9.835938 -1.1875 9.984375 -1.25 L 10.109375 -1.203125 L 10.28125 -0.15625 C 10.175781 -0.0820312 10.03125 -0.0234375 9.84375 0.015625 C 9.664062 0.0546875 9.476562 0.078125 9.28125 0.078125 C 8.71875 0.078125 8.289062 -0.046875 8 -0.296875 C 7.71875 -0.546875 7.535156 -0.910156 7.453125 -1.390625 L 7.265625 -1.40625 C 6.972656 -0.875 6.578125 -0.472656 6.078125 -0.203125 C 5.585938 0.0546875 4.96875 0.1875 4.21875 0.1875 Z M 4.5625 -1.015625 C 5.125 -1.015625 5.613281 -1.144531 6.03125 -1.40625 C 6.445312 -1.664062 6.765625 -2.035156 6.984375 -2.515625 C 7.210938 -2.992188 7.328125 -3.546875 7.328125 -4.171875 L 7.328125 -5.46875 L 7.15625 -5.5 C 6.925781 -5.34375 6.644531 -5.207031 6.3125 -5.09375 C 5.988281 -4.988281 5.53125 -4.894531 4.9375 -4.8125 C 4.34375 -4.726562 3.867188 -4.601562 3.515625 -4.4375 C 3.171875 -4.269531 2.925781 -4.054688 2.78125 -3.796875 C 2.632812 -3.546875 2.5625 -3.226562 2.5625 -2.84375 C 2.5625 -2.25 2.738281 -1.796875 3.09375 -1.484375 C 3.445312 -1.171875 3.9375 -1.015625 4.5625 -1.015625 Z M 4.5625 -1.015625 "/></g></g></g><g fill="#ffffff" fill-opacity="1"><g transform="translate(221.517599, 358.100016)"><g><path d="M 1.78125 0 L 1.78125 -10.234375 L 3.21875 -10.234375 L 3.21875 -8.71875 L 3.421875 -8.6875 C 3.765625 -9.257812 4.179688 -9.691406 4.671875 -9.984375 C 5.160156 -10.273438 5.75 -10.421875 6.4375 -10.421875 C 7.226562 -10.421875 7.835938 -10.269531 8.265625 -9.96875 C 8.703125 -9.675781 9.039062 -9.195312 9.28125 -8.53125 L 9.484375 -8.53125 C 9.835938 -9.15625 10.269531 -9.625 10.78125 -9.9375 C 11.300781 -10.257812 11.9375 -10.421875 12.6875 -10.421875 C 13.738281 -10.421875 14.519531 -10.132812 15.03125 -9.5625 C 15.550781 -9 15.8125 -8.140625 15.8125 -6.984375 L 15.8125 0 L 14.3125 0 L 14.3125 -6.9375 C 14.3125 -7.675781 14.15625 -8.222656 13.84375 -8.578125 C 13.53125 -8.929688 13.023438 -9.109375 12.328125 -9.109375 C 11.515625 -9.109375 10.847656 -8.8125 10.328125 -8.21875 C 9.816406 -7.625 9.5625 -6.644531 9.5625 -5.28125 L 9.5625 0 L 8.046875 0 L 8.046875 -6.9375 C 8.046875 -7.675781 7.890625 -8.222656 7.578125 -8.578125 C 7.265625 -8.929688 6.757812 -9.109375 6.0625 -9.109375 C 5.25 -9.109375 4.582031 -8.820312 4.0625 -8.25 C 3.550781 -7.675781 3.296875 -6.742188 3.296875 -5.453125 L 3.296875 0 Z M 1.78125 0 "/></g></g></g><g fill="#ffffff" fill-opacity="1"><g transform="translate(238.955418, 358.100016)"><g><path d="M 4.671875 0.1875 C 4.023438 0.1875 3.425781 0.101562 2.875 -0.0625 C 2.332031 -0.226562 1.867188 -0.457031 1.484375 -0.75 C 1.109375 -1.050781 0.847656 -1.390625 0.703125 -1.765625 L 1.59375 -2.6875 L 1.78125 -2.6875 C 2.113281 -2.1875 2.515625 -1.804688 2.984375 -1.546875 C 3.453125 -1.285156 4.015625 -1.15625 4.671875 -1.15625 C 5.421875 -1.15625 5.992188 -1.300781 6.390625 -1.59375 C 6.785156 -1.894531 6.984375 -2.304688 6.984375 -2.828125 C 6.984375 -3.234375 6.863281 -3.566406 6.625 -3.828125 C 6.382812 -4.085938 6 -4.285156 5.46875 -4.421875 L 3.734375 -4.84375 C 2.816406 -5.0625 2.144531 -5.410156 1.71875 -5.890625 C 1.289062 -6.378906 1.078125 -6.976562 1.078125 -7.6875 C 1.078125 -8.25 1.21875 -8.734375 1.5 -9.140625 C 1.789062 -9.554688 2.203125 -9.875 2.734375 -10.09375 C 3.273438 -10.3125 3.910156 -10.421875 4.640625 -10.421875 C 5.585938 -10.421875 6.332031 -10.289062 6.875 -10.03125 C 7.414062 -9.769531 7.835938 -9.40625 8.140625 -8.9375 L 7.28125 -8.09375 L 7.09375 -8.09375 C 6.769531 -8.476562 6.414062 -8.753906 6.03125 -8.921875 C 5.644531 -9.085938 5.179688 -9.171875 4.640625 -9.171875 C 3.972656 -9.171875 3.457031 -9.046875 3.09375 -8.796875 C 2.738281 -8.554688 2.5625 -8.207031 2.5625 -7.75 C 2.5625 -7.34375 2.6875 -7.007812 2.9375 -6.75 C 3.195312 -6.5 3.640625 -6.296875 4.265625 -6.140625 L 5.96875 -5.734375 C 6.851562 -5.523438 7.492188 -5.175781 7.890625 -4.6875 C 8.285156 -4.195312 8.484375 -3.582031 8.484375 -2.84375 C 8.484375 -2.25 8.34375 -1.722656 8.0625 -1.265625 C 7.78125 -0.804688 7.347656 -0.445312 6.765625 -0.1875 C 6.191406 0.0625 5.492188 0.1875 4.671875 0.1875 Z M 4.671875 0.1875 "/></g></g></g></svg>